<?xml version="1.0" standalone="no"?>
<!DOCTYPE svg PUBLIC "-//W3C//DTD SVG 20010904//EN"
 "http://www.w3.org/TR/2001/REC-SVG-20010904/DTD/svg10.dtd">
<svg version="1.0" xmlns="http://www.w3.org/2000/svg"
 width="500.000000pt" height="500.000000pt" viewBox="0 0 500.000000 500.000000"
 preserveAspectRatio="xMidYMid meet">
<metadata>
Created by potrace 1.11, written by Peter Selinger 2001-2013
</metadata>
<g transform="translate(0.000000,500.000000) scale(0.100000,-0.100000)"
fill="#000000" stroke="none">
<path d="M2074 4978 c3 -13 7 -124 11 -248 3 -124 8 -279 10 -345 3 -66 7
-190 10 -276 l6 -155 -26 -28 c-30 -32 -62 -30 -83 5 -18 28 -10 34 30 20 30
-10 31 -9 14 4 -31 23 -83 19 -111 -10 -14 -13 -25 -30 -25 -37 0 -7 -11 -35
-24 -63 -16 -32 -23 -60 -19 -77 7 -34 -26 -104 -73 -155 -20 -21 -42 -51 -50
-68 -8 -16 -23 -44 -34 -60 -15 -25 -17 -37 -10 -60 l10 -30 -4 31 c-5 32 8
54 31 54 7 0 13 -6 13 -14 0 -8 7 -22 16 -30 14 -15 13 -20 -16 -56 -17 -22
-32 -49 -33 -60 -1 -19 -12 -24 -47 -21 -30 2 -43 -15 -31 -38 7 -12 9 -26 6
-31 -9 -14 9 -12 23 2 7 7 12 9 12 5 0 -3 -10 -15 -22 -27 -12 -11 -18 -23
-14 -27 4 -4 11 -1 16 7 26 42 -4 -70 -35 -130 -8 -16 -18 -53 -21 -84 -7 -55
-6 -56 19 -56 14 0 28 7 32 18 6 16 7 16 16 0 13 -24 1 -47 -22 -41 -11 3 -21
-1 -25 -11 -3 -9 -17 -16 -30 -16 -36 0 -29 -17 13 -31 37 -12 37 -12 15 -27
-23 -15 -30 -56 -12 -67 6 -3 10 -36 10 -73 0 -73 14 -75 36 -4 7 20 12 29 13
20 1 -17 -1 -19 95 69 24 23 33 38 29 52 -11 43 52 134 71 103 8 -13 33 -144
47 -242 8 -60 14 -79 20 -65 7 18 8 17 8 -6 1 -14 8 -48 16 -75 11 -38 11 -45
1 -31 -12 15 -14 13 -19 -24 -6 -48 0 -72 16 -62 28 17 52 6 103 -44 30 -29
59 -53 64 -53 6 0 10 -4 10 -8 0 -5 -27 -2 -60 6 -43 11 -69 12 -93 5 -32 -9
-31 -10 52 -37 46 -14 86 -24 89 -22 2 3 14 1 25 -5 14 -8 18 -8 13 0 -9 14
16 14 49 -1 18 -8 22 -14 13 -20 -9 -5 0 -19 34 -48 33 -29 51 -53 58 -81 8
-30 19 -44 45 -56 33 -16 34 -18 33 -69 -2 -66 8 -78 100 -120 70 -32 74 -35
98 -91 41 -95 44 -100 93 -125 56 -28 109 -74 146 -128 31 -44 63 -52 103 -24
28 19 58 78 67 129 17 102 13 96 53 89 172 -32 318 -150 310 -250 -2 -30 -8
-39 -26 -44 -13 -3 -23 -8 -23 -12 2 -24 -1 -29 -24 -38 -14 -5 -25 -14 -25
-19 0 -5 -9 -12 -19 -16 -12 -3 -18 -12 -15 -20 3 -7 -2 -27 -10 -44 -9 -17
-17 -34 -17 -38 -1 -5 -5 -18 -10 -31 -5 -13 -9 -27 -9 -32 0 -5 -12 -17 -27
-27 -16 -10 -32 -23 -36 -30 -5 -8 -18 -11 -33 -7 -24 6 -39 1 -104 -31 -14
-7 -46 -16 -72 -19 -27 -4 -48 -12 -48 -17 0 -5 -11 -14 -25 -21 -13 -6 -31
-25 -39 -42 -34 -70 -141 -156 -195 -156 -20 0 -46 -3 -58 -6 -14 -4 -27 1
-39 14 -14 17 -21 19 -38 10 -12 -7 -60 -11 -111 -10 -88 1 -107 6 -210 52
-45 21 -109 35 -141 32 -14 -2 -30 11 -52 42 -18 24 -32 48 -32 54 0 5 -8 16
-18 26 -11 9 -27 41 -37 71 -11 30 -29 67 -42 81 -13 15 -23 37 -23 49 0 13
-6 25 -14 28 -7 3 -24 27 -37 54 -12 26 -29 54 -36 61 -7 7 -16 24 -19 37 -3
13 -15 25 -26 28 -11 3 -17 10 -14 16 4 6 13 8 21 4 11 -4 13 -1 9 11 -3 8 -9
14 -12 13 -4 -1 -28 4 -53 12 -32 9 -51 21 -63 42 -9 16 -24 29 -32 29 -8 0
-14 9 -14 20 0 22 -16 27 -22 8 -3 -7 -5 1 -5 17 0 17 -9 50 -21 75 -11 25
-23 57 -27 71 -3 14 -15 30 -26 37 -18 12 -19 9 -19 -77 0 -50 -9 -136 -20
-193 -31 -164 -32 -174 -31 -350 1 -93 -2 -168 -7 -168 -5 0 -20 39 -33 88
-34 124 -34 280 0 335 27 45 24 55 -11 28 -19 -15 -36 -19 -74 -16 -114 8
-180 17 -188 25 -16 16 5 30 47 29 86 -2 80 -14 73 128 -4 71 -6 145 -6 166 1
43 -17 50 -23 9 -3 -23 -4 -21 -6 9 -2 59 -26 73 -116 67 -53 -4 -84 -11 -103
-24 -24 -18 -39 -20 -84 -15 -9 1 -8 4 2 11 12 8 11 10 -7 10 -13 0 -23 -4
-23 -9 0 -5 -11 -8 -25 -7 -14 0 -25 4 -25 9 0 4 -7 7 -15 7 -8 0 -15 -5 -15
-11 0 -7 -9 -9 -21 -6 -23 6 -99 -22 -99 -36 0 -5 -9 -5 -20 -2 -12 4 -26 3
-33 -2 -16 -13 -117 -15 -117 -3 0 6 -9 6 -23 1 -14 -6 -30 -6 -38 0 -8 5 -10
9 -6 9 4 0 3 9 -3 19 -10 19 -11 19 -52 -4 -23 -13 -45 -22 -49 -19 -4 2 -14
-7 -23 -21 -11 -17 -26 -25 -46 -25 -16 0 -33 -7 -38 -16 -8 -15 -10 -15 -15
0 -4 10 -1 16 8 16 8 0 15 9 15 19 0 19 -19 32 -48 30 -11 0 -12 -2 -4 -6 6
-2 12 -11 12 -20 0 -10 -9 -14 -34 -12 -71 7 -66 73 -66 -892 l0 -869 2500 0
2500 0 0 319 0 319 -32 -8 c-72 -18 -129 -39 -180 -67 -82 -46 -108 -59 -179
-92 -37 -16 -109 -60 -160 -96 l-94 -65 -55 62 -56 61 23 91 c13 53 23 122 23
166 0 46 5 81 12 88 9 9 4 12 -24 12 -20 0 -43 6 -50 12 -8 8 -42 13 -88 13
-41 0 -89 4 -107 7 l-31 7 5 -74 c4 -51 2 -75 -5 -75 -6 0 -12 12 -14 27 l-3
26 -25 -26 c-14 -15 -28 -27 -32 -27 -4 0 -14 16 -23 36 -15 37 -37 40 -28 3
7 -24 -11 -39 -38 -32 -18 5 -49 54 -49 78 0 7 -13 15 -30 17 -24 4 -30 1 -30
-13 0 -10 -5 -21 -11 -24 -6 -4 -8 -13 -5 -21 11 -29 -29 -13 -43 16 -15 34
-34 35 -39 2 -4 -29 -24 -28 -59 2 -25 22 -26 26 -15 51 l13 28 -51 -5 c-43
-4 -56 -2 -78 17 -15 12 -43 26 -62 30 -45 10 -80 28 -103 53 -18 20 -16 23
71 154 l90 134 79 -3 c43 -2 84 -5 91 -8 8 -3 12 -28 12 -75 0 -77 8 -88 55
-76 24 6 25 10 25 80 0 82 3 86 71 86 51 0 50 13 -3 30 -24 8 -48 17 -54 22
-6 4 -16 2 -23 -5 -10 -9 -14 -8 -22 5 -6 11 -22 18 -42 18 -74 -1 -131 6
-134 15 -4 15 9 29 39 42 39 18 60 67 69 163 7 76 18 114 50 172 5 10 9 25 9
33 0 9 4 14 8 11 18 -11 51 25 73 78 12 31 27 57 33 59 16 6 56 -10 56 -23 0
-14 39 -13 54 3 7 6 15 20 19 30 5 12 17 17 47 17 49 0 57 27 10 32 l-31 3 29
34 c33 40 52 35 52 -14 0 -44 18 -54 41 -24 16 20 21 22 28 9 7 -11 21 -15 50
-12 39 4 40 4 38 44 -1 25 3 43 11 45 6 3 12 -1 12 -9 1 -20 36 -58 54 -58 9
0 16 -3 16 -7 0 -5 4 -14 9 -22 8 -12 12 -12 25 -2 13 11 16 7 22 -24 6 -34 8
-36 42 -33 29 2 37 8 43 31 6 21 3 30 -14 42 l-21 15 21 22 c15 18 19 34 18
72 -2 28 -9 52 -16 57 -10 6 -10 9 -2 9 7 0 10 6 8 13 -2 6 -7 41 -10 77 -8
106 -12 115 -43 115 -9 0 -18 9 -19 20 -2 11 0 14 3 8 4 -10 9 -10 20 1 21 22
17 36 -11 36 -34 0 -32 28 3 41 24 10 25 12 8 18 -17 7 -16 9 7 24 15 9 28 17
29 17 2 0 4 -21 6 -48 1 -26 9 -107 17 -180 8 -74 15 -163 15 -198 0 -35 5
-73 12 -83 9 -15 8 -24 -3 -43 -22 -34 -3 -71 31 -62 14 3 52 8 85 9 33 1 60
3 60 4 0 1 19 3 42 5 51 3 51 4 60 -187 l6 -137 28 0 c15 0 31 -4 34 -10 3 -5
37 -10 76 -10 62 0 69 2 69 20 0 11 6 20 14 20 7 0 19 6 26 14 6 8 18 12 26 9
12 -4 14 49 14 365 0 320 -2 371 -15 376 -8 3 -15 12 -15 20 0 10 6 13 15 10
13 -5 15 47 15 431 l0 437 -32 -4 c-24 -2 -33 1 -33 11 0 8 15 19 33 23 l32 9
0 526 0 526 -50 -6 c-38 -5 -50 -3 -50 7 0 15 30 26 71 26 l27 0 0 205 c1 120
-3 207 -8 210 -7 4 -6 13 0 25 15 29 12 32 -15 14 -14 -9 -25 -23 -25 -31 0
-10 -6 -13 -16 -9 -13 5 -75 -12 -146 -39 -13 -5 -18 -2 -18 9 0 9 -4 16 -10
16 -5 0 -10 -7 -10 -15 0 -12 -13 -15 -59 -15 -84 0 -95 5 -74 36 11 18 19 22
26 15 15 -15 57 -14 63 2 2 7 21 12 44 12 28 0 44 6 54 20 10 13 15 15 16 7 0
-18 60 -6 76 14 8 9 13 11 16 4 5 -17 67 0 79 22 14 25 7 31 -22 19 -13 -5
-78 -21 -144 -36 -66 -15 -159 -37 -207 -49 -92 -24 -99 -23 -147 19 -21 18
-72 90 -99 140 -10 18 -11 17 -12 -10 0 -29 13 -362 26 -671 l6 -151 -26 -16
c-15 -10 -27 -13 -31 -7 -3 6 -15 10 -27 10 -15 0 -19 5 -15 20 3 10 -1 24 -9
31 -12 9 -14 5 -14 -29 0 -29 -5 -43 -21 -54 -19 -12 -20 -16 -7 -28 7 -8 19
-34 26 -57 7 -24 17 -43 22 -43 5 0 10 28 12 61 l3 61 43 2 42 2 1 -45 c1 -25
3 -63 4 -83 4 -36 2 -38 -26 -38 -16 0 -32 6 -35 14 -3 8 -20 14 -37 15 -18 1
-41 2 -52 3 -21 1 -71 -6 -145 -21 -33 -7 -51 -6 -72 5 -15 8 -34 14 -42 14
-9 0 -37 33 -64 73 -61 89 -78 105 -135 122 -44 13 -45 13 -40 -8 4 -22 4 -22
-11 -3 -9 11 -16 23 -16 28 0 4 -6 7 -12 6 -7 -2 -12 5 -10 15 2 9 -2 17 -8
17 -6 0 -8 -4 -5 -10 11 -17 -11 -11 -28 8 -22 24 -21 32 2 32 16 0 31 18 31
36 0 8 -25 4 -50 -9 -22 -11 -29 -10 -65 15 -22 15 -59 30 -84 33 -62 7 -64
15 -5 15 l49 0 -2 132 c-1 73 -5 196 -8 273 -4 77 -8 176 -9 220 l-1 80 -169
3 -168 2 6 -67 c3 -38 8 -184 12 -325 7 -264 7 -265 -28 -259 -5 0 -8 -3 -8
-8 0 -5 -25 -15 -55 -22 -30 -7 -55 -16 -55 -21 0 -4 -5 -8 -11 -8 -5 0 -8 4
-4 9 3 5 1 12 -5 16 -6 4 -8 11 -5 16 10 14 -9 11 -31 -7 -13 -11 -15 -17 -6
-20 17 -8 15 -28 -7 -55 -20 -24 -24 -8 -6 21 7 11 2 10 -19 -4 -16 -10 -25
-13 -21 -6 4 6 -1 18 -11 25 -18 13 -17 14 11 15 17 1 24 4 17 7 -8 3 -45 -2
-84 -12 -55 -13 -72 -14 -78 -5 -4 7 -11 144 -16 304 -4 160 -9 294 -10 299
-1 4 -2 30 -3 57 l-1 50 -345 0 -345 0 4 -22z m2876 -277 c0 -5 7 -17 16 -25
14 -15 13 -16 -10 -16 -21 0 -26 5 -26 25 0 14 5 25 10 25 6 0 10 -4 10 -9z
m-1478 -105 c5 -22 5 -51 0 -65 -9 -25 -10 -24 -36 28 -30 58 -28 84 6 79 17
-2 24 -12 30 -42z m-75 1 c62 -121 74 -148 71 -162 -3 -16 -8 -14 -78 26 -43
25 -54 50 -17 42 20 -4 20 -3 -5 17 -22 17 -27 27 -22 46 5 17 2 24 -9 24 -8
0 -17 -6 -19 -12 -3 -9 -10 -8 -22 5 -18 18 -16 20 29 30 43 10 60 6 72 -16z
m1518 -27 c3 -6 -1 -7 -9 -4 -18 7 -21 14 -7 14 6 0 13 -4 16 -10z m-1627 -28
c3 -19 -1 -23 -15 -20 -10 2 -19 14 -21 26 -3 19 1 23 15 20 10 -2 19 -14 21
-26z m1517 18 c3 -5 1 -10 -4 -10 -6 0 -11 5 -11 10 0 6 2 10 4 10 3 0 8 -4
11 -10z m155 -24 c0 -17 -5 -21 -42 -30 -23 -5 -28 -3 -28 13 0 18 13 25 58
30 6 0 12 -5 12 -13z m-104 -33 c-10 -10 -19 5 -10 18 6 11 8 11 12 0 2 -7 1
-15 -2 -18z m-46 -19 c0 -8 -4 -12 -10 -9 -5 3 -10 10 -10 16 0 5 5 9 10 9 6
0 10 -7 10 -16z m140 -24 c-19 -12 -30 -12 -30 -1 0 10 31 20 40 14 2 -2 -2
-8 -10 -13z m-40 -85 c0 -8 -4 -15 -10 -15 -5 0 -10 7 -10 15 0 8 5 15 10 15
6 0 10 -7 10 -15z m-97 -10 c4 -8 2 -17 -3 -20 -6 -4 -10 3 -10 14 0 25 6 27
13 6z m-38 -16 c-10 -15 -25 -10 -19 6 4 8 10 12 15 9 5 -3 7 -10 4 -15z
m-1545 -41 c0 -7 -7 -21 -14 -31 -14 -18 -15 -17 -21 4 -5 14 -2 25 6 30 20
12 29 11 29 -3z m47 -20 c-3 -7 -5 -2 -5 12 0 14 2 19 5 13 2 -7 2 -19 0 -25z
m-397 -22 c0 -2 -7 -6 -15 -10 -8 -3 -15 -1 -15 4 0 6 7 10 15 10 8 0 15 -2
15 -4z m447 -43 c-10 -32 -13 -34 -15 -15 -3 19 12 52 23 52 2 0 -2 -17 -8
-37z m1588 17 c3 -5 1 -10 -4 -10 -6 0 -11 5 -11 10 0 6 2 10 4 10 3 0 8 -4
11 -10z m-2293 -28 c-7 -2 -12 -12 -12 -23 0 -10 -4 -19 -10 -19 -14 0 -12 28
3 44 6 8 16 11 22 8 5 -3 4 -7 -3 -10z m2198 3 c0 -8 -2 -15 -4 -15 -2 0 -6 7
-10 15 -3 8 -1 15 4 15 6 0 10 -7 10 -15z m-1260 -5 c0 -5 -2 -10 -4 -10 -3 0
-8 5 -11 10 -3 6 -1 10 4 10 6 0 11 -4 11 -10z m-580 -22 c0 -18 -2 -20 -9 -8
-6 8 -7 18 -5 22 9 14 14 9 14 -14z m-70 -8 c-20 -13 -33 -13 -25 0 3 6 14 10
23 10 15 0 15 -2 2 -10z m469 -11 c-16 -10 -23 -4 -14 10 3 6 11 8 17 5 6 -4
5 -9 -3 -15z m260 -2 c6 -8 8 -17 4 -20 -7 -8 -33 11 -33 24 0 13 16 11 29 -4z
m1281 3 c0 -5 -4 -10 -10 -10 -5 0 -10 5 -10 10 0 6 5 10 10 10 6 0 10 -4 10
-10z m-103 -22 c-3 -8 -6 -5 -6 6 -1 11 2 17 5 13 3 -3 4 -12 1 -19z m-2352
-18 c-3 -5 -13 -10 -21 -10 -8 0 -12 5 -9 10 3 6 13 10 21 10 8 0 12 -4 9 -10z
m586 -53 c-8 -8 -11 -3 -11 19 1 25 2 27 11 11 8 -14 8 -22 0 -30z m503 14
c-2 -3 -12 3 -22 13 -16 17 -16 18 5 5 12 -7 20 -15 17 -18z m1366 8 c0 -6 -4
-7 -10 -4 -5 3 -10 11 -10 16 0 6 5 7 10 4 6 -3 10 -11 10 -16z m-98 -21 c-9
-9 -12 -7 -12 12 0 19 3 21 12 12 9 -9 9 -15 0 -24z m-1732 -3 c0 -14 -4 -25
-8 -25 -7 0 -8 31 -3 48 4 11 11 -3 11 -23z m725 5 c-6 -10 -45 -1 -45 10 0 4
11 5 25 2 14 -2 23 -8 20 -12z m-1135 -30 c0 -11 -9 -24 -20 -30 -16 -9 -20
-8 -20 5 0 24 20 56 31 50 5 -4 9 -15 9 -25z m2237 -22 c-3 -8 -6 -5 -6 6 -1
11 2 17 5 13 3 -3 4 -12 1 -19z m-1844 -8 c-3 -11 -7 -20 -9 -20 -2 0 -4 9 -4
20 0 11 4 20 9 20 5 0 7 -9 4 -20z m1753 -7 c-10 -10 -19 5 -10 18 6 11 8 11
12 0 2 -7 1 -15 -2 -18z m-2421 -33 c11 -36 14 -63 8 -73 -4 -6 -11 9 -17 34
-9 34 -16 44 -31 44 -18 0 -21 5 -16 35 2 15 49 -19 56 -40z m335 23 c0 -5 -9
-21 -20 -38 -22 -33 -27 -21 -8 20 10 23 28 34 28 18z m-455 -23 c-3 -5 -2
-10 3 -10 5 0 12 -8 16 -17 3 -10 10 -28 15 -40 8 -18 7 -21 -5 -16 -7 3 -14
9 -14 14 0 4 -7 6 -16 2 -8 -3 -13 -12 -10 -20 3 -8 2 -12 -3 -9 -18 12 -5
106 15 106 3 0 2 -4 -1 -10z m755 -21 c-7 -11 -14 -18 -17 -15 -3 3 0 12 7 21
18 21 23 19 10 -6z m869 -29 l21 -40 -25 16 c-15 10 -25 26 -25 40 0 33 5 30
29 -16z m-1399 -38 c0 -15 -2 -15 -10 -2 -13 20 -13 33 0 25 6 -3 10 -14 10
-23z m2420 8 c0 -5 -4 -10 -10 -10 -5 0 -10 5 -10 10 0 6 5 10 10 10 6 0 10
-4 10 -10z m-740 -12 c0 -7 10 -37 22 -66 19 -46 20 -55 8 -63 -13 -8 -13 -10
0 -19 11 -7 7 -10 -18 -10 -23 0 -32 4 -29 13 2 6 10 12 18 12 22 0 21 26 -4
80 l-24 50 -16 -30 c-12 -21 -16 -25 -17 -12 0 29 19 57 40 57 11 0 20 -6 20
-12z m637 -10 c-3 -8 -6 -5 -6 6 -1 11 2 17 5 13 3 -3 4 -12 1 -19z m-83 -3
c3 -8 1 -15 -4 -15 -6 0 -10 7 -10 15 0 8 2 15 4 15 2 0 6 -7 10 -15z m-440
-32 c-9 -21 -18 -46 -21 -55 -3 -10 -9 -18 -13 -18 -5 0 -5 12 0 28 16 54 30
82 40 82 6 0 4 -15 -6 -37z m-1574 -38 c11 4 20 2 20 -4 0 -5 19 -11 41 -13
35 -3 44 -8 59 -35 9 -18 20 -29 24 -26 4 4 4 0 0 -10 -5 -14 0 -17 27 -17 46
0 63 -12 54 -39 -4 -15 -2 -21 8 -21 8 0 17 9 20 20 3 11 13 20 22 20 13 0 16
-6 11 -25 -8 -32 12 -74 25 -54 7 10 8 5 3 -12 -3 -17 -1 -30 7 -34 7 -5 10
-4 5 3 -3 6 -1 14 5 18 18 11 49 -37 38 -58 -7 -13 1 -31 33 -77 24 -33 49
-60 56 -60 6 -1 12 -5 12 -10 0 -4 11 -20 25 -35 31 -34 47 -64 41 -75 -3 -5
1 -14 9 -21 19 -16 19 -35 -1 -65 -14 -22 -14 -26 -1 -40 10 -10 18 -11 22 -5
4 6 12 10 18 8 7 -1 27 2 45 6 26 6 46 1 107 -29 54 -27 75 -43 75 -56 0 -12
10 -23 25 -29 14 -5 25 -16 25 -25 0 -8 7 -15 15 -15 9 0 15 -9 15 -25 0 -14
4 -25 9 -25 5 0 14 -12 20 -27 16 -39 75 -137 116 -193 19 -26 46 -84 61 -129
30 -94 27 -110 -31 -150 -29 -20 -33 -27 -28 -52 7 -38 -6 -37 -78 6 -94 58
-219 112 -320 141 -56 15 -101 34 -111 46 -10 11 -18 17 -18 13 0 -5 -8 -1
-18 8 -29 27 -71 38 -93 26 -16 -8 -32 -6 -70 7 -65 24 -76 37 -55 66 44 62
67 100 61 106 -6 7 -13 3 -67 -40 -31 -25 -37 -26 -69 -15 -19 7 -66 35 -104
63 -137 101 -363 222 -387 207 -5 -3 -17 2 -26 11 -34 30 -292 106 -361 106
-38 0 -44 9 -22 34 54 60 88 104 101 131 8 17 19 33 25 37 6 5 4 8 -5 8 -9 0
-6 6 9 17 l24 16 -21 8 c-14 5 -20 14 -16 24 7 18 -12 21 -20 3 -3 -7 -5 -4
-3 7 1 11 13 25 27 32 14 7 19 13 10 13 -12 1 -10 5 5 18 24 20 31 67 15 88
-10 12 -7 14 18 14 31 0 47 20 31 39 -6 8 -5 8 3 1 21 -17 30 -11 24 15 -5 18
-2 25 8 25 8 0 26 10 40 23 13 12 35 23 48 24 50 4 88 14 88 25 0 5 7 8 15 4
8 -3 15 -1 15 4 0 4 14 12 32 15 18 4 41 13 51 19 15 8 21 8 24 -1 7 -18 23
-15 63 11 26 17 40 21 53 14 10 -5 27 -6 37 -3z m1384 -21 c10 -25 -1 -29 -14
-5 -6 12 -7 21 -1 21 5 0 12 -7 15 -16z m-794 -113 c0 -11 -4 -23 -10 -26 -6
-4 -10 5 -10 19 0 14 5 26 10 26 6 0 10 -9 10 -19z m-280 -31 c0 -5 -5 -10
-11 -10 -5 0 -7 5 -4 10 3 6 8 10 11 10 2 0 4 -4 4 -10z m640 0 c12 -8 9 -10
-12 -10 -15 0 -30 5 -33 10 -8 13 25 13 45 0z m-275 -10 c3 -5 2 -10 -4 -10
-5 0 -13 5 -16 10 -3 6 -2 10 4 10 5 0 13 -4 16 -10z m650 -50 c3 -5 1 -10 -4
-10 -6 0 -11 5 -11 10 0 6 2 10 4 10 3 0 8 -4 11 -10z m-2255 -8 c0 -13 -12
-22 -22 -16 -10 6 -1 24 13 24 5 0 9 -4 9 -8z m2537 -54 c-2 -13 -4 -5 -4 17
-1 22 1 32 4 23 2 -10 2 -28 0 -40z m-1177 -9 c0 -5 -9 -1 -20 8 -11 10 -20
24 -20 33 1 11 6 8 20 -9 11 -13 20 -27 20 -32z m1105 41 c3 -5 1 -10 -4 -10
-6 0 -11 5 -11 10 0 6 2 10 4 10 3 0 8 -4 11 -10z m47 -12 c-7 -7 -12 -8 -12
-2 0 6 3 14 7 17 3 4 9 5 12 2 2 -3 -1 -11 -7 -17z m-1112 -28 c0 -5 -2 -10
-4 -10 -3 0 -8 5 -11 10 -3 6 -1 10 4 10 6 0 11 -4 11 -10z m-1460 -10 c0 -5
-5 -10 -11 -10 -5 0 -7 5 -4 10 3 6 8 10 11 10 2 0 4 -4 4 -10z m420 1 c0 -5
-7 -12 -16 -15 -14 -5 -15 -4 -4 9 14 17 20 19 20 6z m1021 -30 c6 10 9 8 9
-9 0 -28 -24 -25 -27 4 -2 11 0 14 3 5 5 -11 8 -11 15 0z m1165 -106 c3 -67 1
-86 -8 -83 -7 3 -15 15 -16 28 -5 29 8 153 14 147 3 -3 7 -44 10 -92z m-673
78 c-7 -2 -19 -2 -25 0 -7 3 -2 5 12 5 14 0 19 -2 13 -5z m1272 -12 c3 -5 1
-12 -5 -16 -5 -3 -10 1 -10 9 0 18 6 21 15 7z m-710 -32 c10 -15 -1 -23 -20
-15 -9 3 -13 10 -10 16 8 13 22 13 30 -1z m-945 -49 c0 -5 -2 -10 -4 -10 -3 0
-8 5 -11 10 -3 6 -1 10 4 10 6 0 11 -4 11 -10z m1010 -49 c0 -6 -4 -13 -10
-16 -5 -3 -10 1 -10 9 0 9 5 16 10 16 6 0 10 -4 10 -9z m-575 -41 c3 -6 -1 -7
-9 -4 -18 7 -21 14 -7 14 6 0 13 -4 16 -10z m605 -10 c0 -5 -4 -10 -10 -10 -5
0 -10 5 -10 10 0 6 5 10 10 10 6 0 10 -4 10 -10z m34 -39 c6 -34 6 -34 -14
-16 -20 19 -28 41 -10 30 6 -3 10 2 10 11 0 25 6 14 14 -25z m-409 10 c-3 -6
-11 -11 -17 -11 -6 0 -6 6 2 15 14 17 26 13 15 -4z m892 -13 c-3 -7 -5 -2 -5
12 0 14 2 19 5 13 2 -7 2 -19 0 -25z m-800 -64 c-3 -3 -12 -4 -19 -1 -8 3 -5
6 6 6 11 1 17 -2 13 -5z m413 -44 c0 -5 -4 -10 -10 -10 -5 0 -10 5 -10 10 0 6
5 10 10 10 6 0 10 -4 10 -10z m-55 -98 c-10 -10 -16 -12 -13 -7 3 6 8 19 13
30 5 14 9 16 12 7 3 -8 -3 -21 -12 -30z m-725 -27 c17 -9 30 -22 30 -29 0 -8
8 -29 17 -48 30 -60 33 -68 33 -83 0 -14 33 -38 42 -30 13 13 46 -45 51 -88 4
-41 3 -45 -9 -30 -7 10 -14 21 -14 25 0 4 -22 30 -50 58 -27 28 -50 55 -50 60
0 11 -77 127 -90 135 -13 8 -13 45 0 45 6 0 24 -7 40 -15z m665 -24 c-3 -6
-11 -11 -17 -11 -6 0 -6 6 2 15 14 17 26 13 15 -4z m435 -22 c0 -5 -4 -9 -10
-9 -5 0 -10 7 -10 16 0 8 5 12 10 9 6 -3 10 -10 10 -16z m-985 -71 c29 -59 28
-58 15 -58 -10 0 -60 81 -60 98 0 28 22 8 45 -40z m265 7 c-7 -8 -17 -12 -23
-8 -6 4 -3 11 8 19 23 17 32 10 15 -11z m185 -5 c-3 -5 -11 -10 -16 -10 -6 0
-7 5 -4 10 3 6 11 10 16 10 6 0 7 -4 4 -10z m-1515 -47 c35 -23 80 -65 80 -75
0 -12 -68 -10 -91 2 -10 6 -19 19 -19 30 0 12 -10 21 -30 25 -29 6 -37 15 -23
28 12 13 58 7 83 -10z m-657 -27 c7 -17 -18 -42 -27 -27 -7 11 3 41 14 41 4 0
10 -6 13 -14z m87 10 c0 -2 -7 -7 -16 -10 -8 -3 -12 -2 -9 4 6 10 25 14 25 6z
m2291 -113 c-12 -20 -14 -14 -5 12 4 9 9 14 11 11 3 -2 0 -13 -6 -23z m-2178
-42 c-4 -3 -14 -18 -22 -33 -8 -16 -22 -28 -32 -28 -9 0 -19 -4 -21 -10 -2 -5
-23 -2 -51 8 -26 9 -46 21 -44 25 1 5 29 20 60 33 32 12 70 32 85 43 l27 20 3
-26 c2 -14 0 -29 -5 -32z m2094 27 c5 -7 9 -28 9 -46 -1 -28 1 -30 12 -15 6 9
12 12 12 6 0 -14 -29 -38 -37 -30 -3 4 -14 2 -25 -4 -29 -15 -31 -6 -7 25 17
22 18 27 5 32 -12 5 -13 9 -3 25 14 22 21 24 34 7z m-1632 -18 c18 -8 18 -9
-5 -9 -14 0 -34 4 -45 9 -18 8 -18 9 5 9 14 0 34 -4 45 -9z m1544 -24 c-2 -2
-15 -9 -29 -16 -23 -12 -24 -12 -11 3 7 10 20 17 29 17 8 0 13 -2 11 -4z m511
-26 c0 -5 -4 -10 -10 -10 -5 0 -10 5 -10 10 0 6 5 10 10 10 6 0 10 -4 10 -10z
m90 0 c0 -5 -2 -10 -4 -10 -3 0 -8 5 -11 10 -3 6 -1 10 4 10 6 0 11 -4 11 -10z
m-2150 -20 c0 -5 -11 -10 -25 -10 -14 0 -25 5 -25 10 0 6 11 10 25 10 14 0 25
-4 25 -10z m1154 -15 c8 -33 -4 -57 -15 -29 -11 27 -11 54 0 54 5 0 12 -11 15
-25z m493 -40 c1 -19 -3 -38 -9 -41 -15 -10 -22 4 -9 20 10 12 9 15 -8 13 -11
0 -17 -5 -15 -9 3 -4 0 -8 -5 -8 -18 0 -12 21 12 41 30 25 33 24 34 -16z m503
13 c0 -18 -2 -20 -9 -8 -6 8 -7 18 -5 22 9 14 14 9 14 -14z m100 1 c0 -5 -4
-9 -10 -9 -5 0 -10 7 -10 16 0 8 5 12 10 9 6 -3 10 -10 10 -16z m-2862 -30
c46 -34 52 -57 22 -84 -20 -18 -21 -18 -48 2 -40 29 -56 67 -40 93 16 26 16
26 66 -11z m1365 -72 c77 -35 77 -57 1 -57 -53 0 -56 2 -67 29 -6 17 -21 32
-34 36 -13 3 -23 10 -23 16 0 17 55 6 123 -24z m-516 -29 c47 -50 53 -67 41
-123 -15 -77 -1 -307 23 -358 22 -50 24 -86 5 -93 -24 -9 -56 15 -56 41 0 28
-8 30 -127 26 -83 -4 -173 26 -208 67 -29 34 -79 53 -169 62 -43 5 -80 11 -83
14 -3 3 3 22 13 43 23 46 71 80 127 88 30 5 56 19 92 51 l50 44 -55 -25 c-76
-34 -97 -31 -31 5 29 16 60 35 68 42 11 9 16 9 23 -2 6 -10 27 0 88 44 44 32
91 69 103 82 31 33 59 30 96 -8z m1924 -71 c-1 -12 -15 -9 -19 4 -3 6 1 10 8
8 6 -3 11 -8 11 -12z m-91 -7 c0 -5 -4 -10 -10 -10 -5 0 -10 5 -10 10 0 6 5
10 10 10 6 0 10 -4 10 -10z m-1352 -37 c-10 -2 -28 -2 -40 0 -13 2 -5 4 17 4
22 1 32 -1 23 -4z m-1054 -19 c21 -8 20 -20 0 -28 -19 -7 -47 12 -38 25 6 11
16 11 38 3z m1143 -30 c-3 -3 -12 -4 -19 -1 -8 3 -5 6 6 6 11 1 17 -2 13 -5z
m-92 -14 c4 -6 -7 -10 -24 -10 -17 0 -31 5 -31 10 0 6 11 10 24 10 14 0 28 -4
31 -10z m479 -264 c-6 -16 -34 -30 -34 -18 0 10 22 32 32 32 4 0 5 -6 2 -14z
m433 -48 c-2 -13 -4 -5 -4 17 -1 22 1 32 4 23 2 -10 2 -28 0 -40z m-3727 -144
c0 -11 -9 -14 -37 -12 -20 2 -38 8 -40 14 -2 7 5 10 20 7 14 -3 28 0 32 6 8
14 25 4 25 -15z m104 -3 c3 -5 -1 -11 -9 -15 -8 -3 -15 -1 -15 4 0 5 -8 11
-17 13 -12 3 -8 5 9 6 15 0 29 -3 32 -8z m2764 -19 c2 -7 -3 -12 -12 -12 -9 0
-16 7 -16 16 0 17 22 14 28 -4z m-3168 -16 c0 -20 -16 -36 -36 -36 -23 0 -32
18 -17 33 7 8 53 10 53 3z m3264 -43 c-11 -77 -22 -81 -34 -14 -7 40 -2 48 27
50 8 1 10 -11 7 -36z m1386 7 c0 -5 -9 -14 -20 -20 -23 -12 -26 -6 -7 15 14
17 27 19 27 5z m-4819 -21 c29 -15 6 -39 -37 -39 -38 0 -47 22 -16 39 22 13
29 13 53 0z m272 -6 c-7 -2 -19 -2 -25 0 -7 3 -2 5 12 5 14 0 19 -2 13 -5z
m1120 -170 c9 -9 -13 -34 -24 -27 -14 8 -11 34 4 34 8 0 17 -3 20 -7z m-1108
-153 c0 -22 -5 -25 -37 -28 -22 -2 -38 1 -38 7 0 6 -6 11 -14 11 -8 0 -18 5
-21 10 -13 21 8 31 58 28 48 -3 52 -5 52 -28z m261 -7 c-11 -11 -17 4 -9 23 7
18 8 18 11 1 2 -10 1 -21 -2 -24z m3361 -610 c-3 -10 -5 -2 -5 17 0 19 2 27 5
18 2 -10 2 -26 0 -35z m188 -78 c0 -48 -1 -50 -25 -47 -40 6 -52 24 -45 66 7
34 10 37 39 34 30 -3 31 -4 31 -53z m-175 20 c10 -12 10 -15 -4 -15 -9 0 -16
7 -16 15 0 8 2 15 4 15 2 0 9 -7 16 -15z"/>
<path d="M3424 2631 c-73 -33 -65 -85 13 -88 26 -2 61 -4 78 -5 16 -2 30 2 30
7 0 6 4 16 8 23 6 8 1 12 -15 13 -20 0 -20 1 -5 8 18 7 18 7 0 28 -25 31 -61
35 -109 14z"/>
<path d="M4954 4978 c-3 -4 -14 -8 -25 -8 -10 0 -19 -5 -19 -11 0 -7 7 -8 18
-4 9 4 29 10 45 13 15 2 27 7 27 11 0 9 -40 8 -46 -1z"/>
<path d="M3067 4354 c-15 -15 -6 -22 28 -22 20 0 32 4 29 10 -4 5 -15 8 -25 5
-10 -3 -19 -1 -21 5 -2 5 -7 6 -11 2z"/>
<path d="M3650 4335 c13 -14 26 -25 28 -25 3 0 -5 11 -18 25 -13 14 -26 25
-28 25 -3 0 5 -11 18 -25z"/>
<path d="M3686 4287 c3 -10 9 -15 12 -12 3 3 0 11 -7 18 -10 9 -11 8 -5 -6z"/>
<path d="M3768 4284 c-16 -8 -28 -17 -28 -19 0 -11 19 -4 41 15 29 23 24 25
-13 4z"/>
<path d="M3927 4066 c-4 -10 0 -12 14 -9 22 6 26 23 5 23 -8 0 -16 -6 -19 -14z"/>
<path d="M1782 3670 c0 -14 2 -19 5 -12 2 6 2 18 0 25 -3 6 -5 1 -5 -13z"/>
<path d="M4180 1910 c0 -5 5 -10 10 -10 6 0 10 5 10 10 0 6 -4 10 -10 10 -5 0
-10 -4 -10 -10z"/>
<path d="M422 1829 c5 -16 66 -25 79 -12 5 5 1 9 -9 10 -9 1 -30 5 -46 9 -22
5 -28 4 -24 -7z"/>
<path d="M2276 1673 c-4 -4 -43 -8 -86 -9 -75 -1 -140 -17 -140 -34 0 -4 17
-11 37 -15 20 -4 58 -18 85 -31 26 -13 58 -24 71 -24 14 0 67 -21 118 -47 146
-75 305 -136 392 -153 28 -6 65 -23 88 -41 21 -16 52 -34 68 -39 26 -7 29 -6
28 11 -1 11 -25 44 -54 74 -29 30 -53 57 -53 60 0 4 -16 26 -36 51 -37 45
-109 86 -174 99 -19 4 -53 19 -75 33 -22 15 -44 27 -50 28 -5 0 -17 4 -25 7
-64 26 -180 44 -194 30z"/>
<path d="M4790 1450 c0 -5 11 -10 24 -10 14 0 28 5 31 10 4 6 -7 10 -24 10
-17 0 -31 -4 -31 -10z"/>
<path d="M2178 1418 c-7 -19 14 -51 75 -117 43 -47 82 -75 169 -122 62 -33
133 -78 158 -98 94 -79 132 -82 187 -16 25 30 39 41 44 33 13 -21 46 66 41
107 -4 37 -4 37 -41 28 -79 -18 -190 -2 -286 42 -69 32 -104 45 -115 45 -16 0
-122 58 -135 73 -12 15 -60 37 -80 37 -7 0 -15 -6 -17 -12z"/>
<path d="M4483 1363 c-10 -3 -10 -10 -2 -25 14 -25 5 -48 -19 -48 -10 0 -30
-6 -45 -12 -20 -10 -25 -18 -21 -33 5 -16 4 -18 -7 -8 -8 8 -17 9 -24 3 -7 -5
-27 -12 -46 -14 -19 -3 -36 -5 -39 -6 -3 0 3 -5 13 -11 9 -6 15 -14 12 -19 -3
-5 4 -15 16 -24 19 -13 26 -13 49 -1 15 8 30 21 33 30 8 20 61 20 77 0 7 -8
18 -15 26 -15 17 0 46 -29 39 -40 -3 -5 16 -11 42 -15 27 -3 56 -8 66 -10 9
-2 17 1 17 6 0 5 -4 9 -9 9 -5 0 -11 10 -14 21 -4 14 -11 20 -21 16 -11 -5
-17 3 -22 31 -3 20 -15 52 -26 70 l-20 32 21 0 c14 0 21 6 21 19 0 27 -15 34
-41 21 -17 -10 -25 -8 -42 8 -12 11 -28 17 -34 15z"/>
<path d="M4776 1355 c4 -8 7 -15 9 -15 2 0 5 7 9 15 3 9 0 15 -9 15 -9 0 -12
-6 -9 -15z"/>
<path d="M4780 1256 c0 -14 5 -26 10 -26 6 0 10 9 10 19 0 11 -4 23 -10 26 -6
4 -10 -5 -10 -19z"/>
<path d="M4918 1223 c18 -2 45 -2 60 0 15 2 0 4 -33 4 -33 0 -45 -2 -27 -4z"/>
<path d="M4775 1170 c-9 -30 2 -40 46 -40 27 0 39 4 39 14 0 10 -8 13 -26 10
-20 -4 -27 0 -31 16 -7 26 -20 26 -28 0z"/>
<path d="M4696 1148 c-3 -13 -6 -26 -6 -30 0 -12 28 -9 49 4 15 9 17 16 10 30
-14 25 -45 23 -53 -4z"/>
<path d="M4191 1144 c0 -11 3 -14 6 -6 3 7 2 16 -1 19 -3 4 -6 -2 -5 -13z"/>
<path d="M4913 1133 c9 -2 23 -2 30 0 6 3 -1 5 -18 5 -16 0 -22 -2 -12 -5z"/>
<path d="M4863 1103 c9 -2 23 -2 30 0 6 3 -1 5 -18 5 -16 0 -22 -2 -12 -5z"/>
<path d="M4373 1083 c-40 -3 -51 -7 -46 -18 3 -8 8 -13 12 -11 3 2 44 7 91 10
83 7 121 16 64 16 -16 0 -38 2 -49 3 -11 2 -43 2 -72 0z"/>
<path d="M3870 1071 c0 -6 5 -13 10 -16 6 -3 10 1 10 9 0 9 -4 16 -10 16 -5 0
-10 -4 -10 -9z"/>
<path d="M4170 1055 c0 -10 10 -15 29 -15 16 0 34 7 41 15 11 13 7 15 -29 15
-30 0 -41 -4 -41 -15z"/>
<path d="M3731 1013 c0 -10 -1 -27 -3 -38 -2 -15 3 -21 25 -23 26 -3 37 11 17
23 -5 3 -10 17 -10 31 0 14 -6 24 -14 24 -8 0 -15 -8 -15 -17z"/>
<path d="M4340 994 c0 -8 5 -12 10 -9 6 3 10 10 10 16 0 5 -4 9 -10 9 -5 0
-10 -7 -10 -16z"/>
<path d="M4684 992 c-8 -5 -5 -13 7 -26 19 -19 19 -19 19 7 0 28 -6 32 -26 19z"/>
<path d="M4606 974 c-4 -9 -4 -19 -2 -21 8 -8 26 8 26 23 0 19 -16 18 -24 -2z"/>
<path d="M4515 970 c-4 -6 7 -10 25 -10 18 0 29 4 25 10 -3 6 -15 10 -25 10
-10 0 -22 -4 -25 -10z"/>
<path d="M4761 970 c-26 -15 -4 -40 36 -40 65 0 110 -17 117 -45 10 -39 23
-29 22 17 -1 47 -14 55 -89 57 -21 1 -46 5 -56 10 -9 5 -23 6 -30 1z"/>
<path d="M4974 955 c-19 -14 -18 -14 4 -15 13 0 22 6 22 15 0 19 -1 19 -26 0z"/>
<path d="M3838 953 c7 -3 16 -2 19 1 4 3 -2 6 -13 5 -11 0 -14 -3 -6 -6z"/>
<path d="M3903 939 c14 -8 22 -8 30 0 8 8 3 11 -18 11 -26 -1 -28 -2 -12 -11z"/>
<path d="M4006 874 c-4 -10 -1 -14 6 -12 15 5 23 28 10 28 -5 0 -13 -7 -16
-16z"/>
<path d="M4747 868 c-26 -7 -37 -15 -33 -24 7 -17 -25 -19 -42 -2 -9 9 -12 9
-12 -3 0 -11 -13 -15 -52 -15 -35 -1 -65 -8 -87 -22 -19 -12 -38 -19 -43 -16
-4 3 -17 2 -28 -1 -16 -5 -18 -10 -10 -26 7 -13 7 -19 0 -19 -5 0 -10 6 -10
14 0 19 -7 23 -60 31 l-45 7 3 -67 c4 -74 11 -81 67 -71 30 6 35 11 36 34 0
27 0 27 10 3 6 -15 14 -21 25 -17 9 3 19 6 22 6 4 0 0 5 -8 11 -12 9 -11 9 5
4 50 -18 55 -18 55 2 0 11 9 29 21 42 l21 22 22 -20 c12 -12 30 -21 39 -21 9
0 19 -4 22 -10 3 -5 18 -7 33 -5 33 6 99 13 130 14 20 1 34 31 14 31 -4 0 -8
21 -9 46 -2 42 -25 86 -42 83 -3 -1 -23 -6 -44 -11z m-37 -58 c-19 -13 -30
-13 -30 0 0 6 10 10 23 10 18 0 19 -2 7 -10z m-30 -30 c0 -5 -5 -10 -11 -10
-5 0 -7 5 -4 10 3 6 8 10 11 10 2 0 4 -4 4 -10z m-26 -16 c3 -8 2 -12 -4 -9
-6 3 -10 10 -10 16 0 14 7 11 14 -7z"/>
<path d="M3950 849 c0 -5 5 -7 10 -4 6 3 10 8 10 11 0 2 -4 4 -10 4 -5 0 -10
-5 -10 -11z"/>
<path d="M3640 830 c-12 -7 -12 -13 -4 -27 15 -24 28 -19 32 12 4 27 -4 31
-28 15z"/>
</g>
</svg>
